<svg xmlns="http://www.w3.org/2000/svg" viewBox="0 0 400 300" width="400" height="300" role="img"
     aria-label="A sine wave with its peak amplitude, its RMS amplitude at 0.707 of the peak, and its peak-to-peak amplitude marked.">
  <!-- Palette matches reveal-console.css. The accent (DAD 422: #6ec1ff) is
       hardcoded because CSS variables do not reach an img-embedded SVG.
       Zero line y=150, peak amplitude 80, so RMS = 0.7071 x 80 = 56.6.
       The rotated peak-to-peak label sits at x=24, well clear of the bracket
       at x=42, and the zero label moved to the right end so they cannot meet. -->
  <g font-family="JetBrains Mono, ui-monospace, Menlo, monospace" fill="#b7c2b3">

    <!-- Zero line, labelled at the far end where nothing else sits -->
    <line x1="42" y1="150" x2="380" y2="150" stroke="#6d786a" stroke-width="1"/>
    <text x="384" y="154" font-size="11" fill="#6d786a">0</text>

    <!-- The signal -->
    <polyline fill="none" stroke="#6ec1ff" stroke-width="2.5" stroke-linejoin="round" points="
              60.0,150.0 61.0,146.9 61.9,143.7 62.9,140.6 63.9,137.5 64.8,134.4 65.8,131.3 66.8,128.3
              67.8,125.3 68.7,122.3 69.7,119.4 70.7,116.5 71.6,113.7 72.6,110.9 73.6,108.2 74.5,105.6
              75.5,103.0 76.5,100.5 77.4,98.0 78.4,95.7 79.4,93.4 80.3,91.3 81.3,89.2 82.3,87.2
              83.2,85.3 84.2,83.5 85.2,81.8 86.2,80.2 87.1,78.7 88.1,77.3 89.1,76.1 90.0,74.9
              91.0,73.9 92.0,73.0 92.9,72.2 93.9,71.5 94.9,71.0 95.8,70.6 96.8,70.2 97.8,70.1
              98.8,70.0 99.7,70.1 100.7,70.2 101.7,70.6 102.6,71.0 103.6,71.5 104.6,72.2 105.5,73.0
              106.5,73.9 107.5,74.9 108.4,76.1 109.4,77.3 110.4,78.7 111.3,80.2 112.3,81.8 113.3,83.5
              114.2,85.3 115.2,87.2 116.2,89.2 117.2,91.3 118.1,93.4 119.1,95.7 120.1,98.0 121.0,100.5
              122.0,103.0 123.0,105.6 123.9,108.2 124.9,110.9 125.9,113.7 126.8,116.5 127.8,119.4
              128.8,122.3 129.8,125.3 130.7,128.3 131.7,131.3 132.7,134.4 133.6,137.5 134.6,140.6
              135.6,143.7 136.5,146.9 137.5,150.0 138.5,153.1 139.4,156.3 140.4,159.4 141.4,162.5
              142.3,165.6 143.3,168.7 144.3,171.7 145.2,174.7 146.2,177.7 147.2,180.6 148.2,183.5
              149.1,186.3 150.1,189.1 151.1,191.8 152.0,194.4 153.0,197.0 154.0,199.5 154.9,202.0
              155.9,204.3 156.9,206.6 157.8,208.7 158.8,210.8 159.8,212.8 160.8,214.7 161.7,216.5
              162.7,218.2 163.7,219.8 164.6,221.3 165.6,222.7 166.6,223.9 167.5,225.1 168.5,226.1
              169.5,227.0 170.4,227.8 171.4,228.5 172.4,229.0 173.3,229.4 174.3,229.8 175.3,229.9
              176.2,230.0 177.2,229.9 178.2,229.8 179.2,229.4 180.1,229.0 181.1,228.5 182.1,227.8
              183.0,227.0 184.0,226.1 185.0,225.1 185.9,223.9 186.9,222.7 187.9,221.3 188.8,219.8
              189.8,218.2 190.8,216.5 191.8,214.7 192.7,212.8 193.7,210.8 194.7,208.7 195.6,206.6
              196.6,204.3 197.6,202.0 198.5,199.5 199.5,197.0 200.5,194.4 201.4,191.8 202.4,189.1
              203.4,186.3 204.3,183.5 205.3,180.6 206.3,177.7 207.2,174.7 208.2,171.7 209.2,168.7
              210.2,165.6 211.1,162.5 212.1,159.4 213.1,156.3 214.0,153.1 215.0,150.0 216.0,146.9
              216.9,143.7 217.9,140.6 218.9,137.5 219.8,134.4 220.8,131.3 221.8,128.3 222.8,125.3
              223.7,122.3 224.7,119.4 225.7,116.5 226.6,113.7 227.6,110.9 228.6,108.2 229.5,105.6
              230.5,103.0 231.5,100.5 232.4,98.0 233.4,95.7 234.4,93.4 235.3,91.3 236.3,89.2
              237.3,87.2 238.2,85.3 239.2,83.5 240.2,81.8 241.2,80.2 242.1,78.7 243.1,77.3 244.1,76.1
              245.0,74.9 246.0,73.9 247.0,73.0 247.9,72.2 248.9,71.5 249.9,71.0 250.8,70.6 251.8,70.2
              252.8,70.1 253.8,70.0 254.7,70.1 255.7,70.2 256.7,70.6 257.6,71.0 258.6,71.5 259.6,72.2
              260.5,73.0 261.5,73.9 262.5,74.9 263.4,76.1 264.4,77.3 265.4,78.7 266.3,80.2 267.3,81.8
              268.3,83.5 269.2,85.3 270.2,87.2 271.2,89.2 272.2,91.3 273.1,93.4 274.1,95.7 275.1,98.0
              276.0,100.5 277.0,103.0 278.0,105.6 278.9,108.2 279.9,110.9 280.9,113.7 281.8,116.5
              282.8,119.4 283.8,122.3 284.8,125.3 285.7,128.3 286.7,131.3 287.7,134.4 288.6,137.5
              289.6,140.6 290.6,143.7 291.5,146.9 292.5,150.0 293.5,153.1 294.4,156.3 295.4,159.4
              296.4,162.5 297.3,165.6 298.3,168.7 299.3,171.7 300.2,174.7 301.2,177.7 302.2,180.6
              303.2,183.5 304.1,186.3 305.1,189.1 306.1,191.8 307.0,194.4 308.0,197.0 309.0,199.5
              309.9,202.0 310.9,204.3 311.9,206.6 312.8,208.7 313.8,210.8 314.8,212.8 315.8,214.7
              316.7,216.5 317.7,218.2 318.7,219.8 319.6,221.3 320.6,222.7 321.6,223.9 322.5,225.1
              323.5,226.1 324.5,227.0 325.4,227.8 326.4,228.5 327.4,229.0 328.3,229.4 329.3,229.8
              330.3,229.9 331.2,230.0 332.2,229.9 333.2,229.8 334.2,229.4 335.1,229.0 336.1,228.5
              337.1,227.8 338.0,227.0 339.0,226.1 340.0,225.1 340.9,223.9 341.9,222.7 342.9,221.3
              343.8,219.8 344.8,218.2 345.8,216.5 346.8,214.7 347.7,212.8 348.7,210.8 349.7,208.7
              350.6,206.6 351.6,204.3 352.6,202.0 353.5,199.5 354.5,197.0 355.5,194.4 356.4,191.8
              357.4,189.1 358.4,186.3 359.3,183.5 360.3,180.6 361.3,177.7 362.2,174.7 363.2,171.7
              364.2,168.7 365.2,165.6 366.1,162.5 367.1,159.4 368.1,156.3 369.0,153.1 370.0,150.0
    "/>

    <!-- Peak and RMS guides, captioned in their own column on the right -->
    <line x1="60" y1="70" x2="298" y2="70" stroke="#b7c2b3" stroke-width="1"/>
    <text x="304" y="74" font-size="13">Peak</text>

    <line x1="60" y1="93.4" x2="298" y2="93.4" stroke="#b7c2b3"
          stroke-width="1" stroke-dasharray="4 4"/>
    <text x="304" y="97.4" font-size="13">RMS</text>
    <text x="304" y="112.4" font-size="10" fill="#6d786a">0.707 x peak</text>

    <!-- Trough guide, so the peak-to-peak span reads as a real distance -->
    <line x1="60" y1="230" x2="210" y2="230" stroke="#6d786a"
          stroke-width="1" stroke-dasharray="4 4"/>

    <!-- Peak-to-peak bracket -->
    <g stroke="#6d786a" stroke-width="1">
      <line x1="42" y1="70" x2="42" y2="230"/>
      <line x1="38" y1="70" x2="46" y2="70"/>
      <line x1="38" y1="230" x2="46" y2="230"/>
    </g>
    <text x="24" y="150" font-size="11" fill="#6d786a" text-anchor="middle"
          transform="rotate(-90 24 150)">PEAK-TO-PEAK</text>

    <text x="215" y="290" font-size="12" fill="#6d786a" text-anchor="middle"
          letter-spacing="0.08em">TIME</text>
  </g>
</svg>
